<mxfile host="app.diagrams.net" modified="2023-06-12T17:52:37.914Z" agent="Mozilla/5.0 (Windows NT 10.0; Win64; x64; rv:109.0) Gecko/20100101 Firefox/113.0" etag="jhQhmJfikXoMEyKflMTl" version="21.3.6" type="github">
  <diagram id="C5RBs43oDa-KdzZeNtuy" name="Page-1">
    <mxGraphModel dx="2068" dy="828" grid="1" gridSize="10" guides="1" tooltips="1" connect="1" arrows="1" fold="1" page="1" pageScale="1" pageWidth="827" pageHeight="1169" math="0" shadow="0">
      <root>
        <mxCell id="WIyWlLk6GJQsqaUBKTNV-0" />
        <mxCell id="WIyWlLk6GJQsqaUBKTNV-1" parent="WIyWlLk6GJQsqaUBKTNV-0" />
        <mxCell id="7_ypvOIFX0uUqmCxVlpF-4" value="" style="edgeStyle=orthogonalEdgeStyle;rounded=0;sketch=1;hachureGap=4;jiggle=2;curveFitting=1;orthogonalLoop=1;jettySize=auto;html=1;fontFamily=Architects Daughter;fontSource=https%3A%2F%2Ffonts.googleapis.com%2Fcss%3Ffamily%3DArchitects%2BDaughter;fontSize=16;" edge="1" parent="WIyWlLk6GJQsqaUBKTNV-1" source="WIyWlLk6GJQsqaUBKTNV-3" target="7_ypvOIFX0uUqmCxVlpF-2">
          <mxGeometry relative="1" as="geometry" />
        </mxCell>
        <mxCell id="WIyWlLk6GJQsqaUBKTNV-3" value="Start MD-LINKS" style="rounded=1;whiteSpace=wrap;html=1;fontSize=12;glass=0;strokeWidth=1;shadow=0;strokeColor=#0F8B8D;fillColor=#FAE5C7;labelBackgroundColor=none;fontColor=#143642;" parent="WIyWlLk6GJQsqaUBKTNV-1" vertex="1">
          <mxGeometry x="506" width="150" height="40" as="geometry" />
        </mxCell>
        <mxCell id="7_ypvOIFX0uUqmCxVlpF-8" value="" style="edgeStyle=orthogonalEdgeStyle;rounded=0;sketch=1;hachureGap=4;jiggle=2;curveFitting=1;orthogonalLoop=1;jettySize=auto;html=1;fontFamily=Architects Daughter;fontSource=https%3A%2F%2Ffonts.googleapis.com%2Fcss%3Ffamily%3DArchitects%2BDaughter;fontSize=16;" edge="1" parent="WIyWlLk6GJQsqaUBKTNV-1" source="7_ypvOIFX0uUqmCxVlpF-126" target="7_ypvOIFX0uUqmCxVlpF-7">
          <mxGeometry relative="1" as="geometry" />
        </mxCell>
        <mxCell id="7_ypvOIFX0uUqmCxVlpF-2" value="Es valido el path" style="strokeWidth=2;html=1;shape=mxgraph.flowchart.decision;whiteSpace=wrap;sketch=1;hachureGap=4;jiggle=2;curveFitting=1;fontFamily=Architects Daughter;fontSource=https%3A%2F%2Ffonts.googleapis.com%2Fcss%3Ffamily%3DArchitects%2BDaughter;fontSize=20;" vertex="1" parent="WIyWlLk6GJQsqaUBKTNV-1">
          <mxGeometry x="511.5" y="80" width="139" height="140" as="geometry" />
        </mxCell>
        <mxCell id="7_ypvOIFX0uUqmCxVlpF-56" style="edgeStyle=orthogonalEdgeStyle;rounded=0;sketch=1;hachureGap=4;jiggle=2;curveFitting=1;orthogonalLoop=1;jettySize=auto;html=1;fontFamily=Architects Daughter;fontSource=https%3A%2F%2Ffonts.googleapis.com%2Fcss%3Ffamily%3DArchitects%2BDaughter;fontSize=16;" edge="1" parent="WIyWlLk6GJQsqaUBKTNV-1" source="7_ypvOIFX0uUqmCxVlpF-7">
          <mxGeometry relative="1" as="geometry">
            <mxPoint x="761" y="1060" as="targetPoint" />
          </mxGeometry>
        </mxCell>
        <mxCell id="7_ypvOIFX0uUqmCxVlpF-7" value="False" style="whiteSpace=wrap;html=1;fontSize=20;fontFamily=Architects Daughter;strokeWidth=2;sketch=1;hachureGap=4;jiggle=2;curveFitting=1;fontSource=https%3A%2F%2Ffonts.googleapis.com%2Fcss%3Ffamily%3DArchitects%2BDaughter;" vertex="1" parent="WIyWlLk6GJQsqaUBKTNV-1">
          <mxGeometry x="701" y="230" width="120" height="60" as="geometry" />
        </mxCell>
        <mxCell id="7_ypvOIFX0uUqmCxVlpF-12" value="" style="edgeStyle=orthogonalEdgeStyle;rounded=0;sketch=1;hachureGap=4;jiggle=2;curveFitting=1;orthogonalLoop=1;jettySize=auto;html=1;fontFamily=Architects Daughter;fontSource=https%3A%2F%2Ffonts.googleapis.com%2Fcss%3Ffamily%3DArchitects%2BDaughter;fontSize=16;" edge="1" parent="WIyWlLk6GJQsqaUBKTNV-1" source="7_ypvOIFX0uUqmCxVlpF-128" target="7_ypvOIFX0uUqmCxVlpF-11">
          <mxGeometry relative="1" as="geometry">
            <Array as="points" />
          </mxGeometry>
        </mxCell>
        <mxCell id="7_ypvOIFX0uUqmCxVlpF-16" value="" style="edgeStyle=orthogonalEdgeStyle;rounded=0;sketch=1;hachureGap=4;jiggle=2;curveFitting=1;orthogonalLoop=1;jettySize=auto;html=1;fontFamily=Architects Daughter;fontSource=https%3A%2F%2Ffonts.googleapis.com%2Fcss%3Ffamily%3DArchitects%2BDaughter;fontSize=16;" edge="1" parent="WIyWlLk6GJQsqaUBKTNV-1" source="7_ypvOIFX0uUqmCxVlpF-9" target="7_ypvOIFX0uUqmCxVlpF-15">
          <mxGeometry relative="1" as="geometry" />
        </mxCell>
        <mxCell id="7_ypvOIFX0uUqmCxVlpF-9" value="&lt;div&gt;Es &lt;br&gt;&lt;/div&gt;&lt;div&gt;absoluta?&lt;/div&gt;" style="strokeWidth=2;html=1;shape=mxgraph.flowchart.decision;whiteSpace=wrap;sketch=1;hachureGap=4;jiggle=2;curveFitting=1;fontFamily=Architects Daughter;fontSource=https%3A%2F%2Ffonts.googleapis.com%2Fcss%3Ffamily%3DArchitects%2BDaughter;fontSize=20;" vertex="1" parent="WIyWlLk6GJQsqaUBKTNV-1">
          <mxGeometry x="319" y="310" width="120" height="110" as="geometry" />
        </mxCell>
        <mxCell id="7_ypvOIFX0uUqmCxVlpF-18" style="edgeStyle=orthogonalEdgeStyle;rounded=0;sketch=1;hachureGap=4;jiggle=2;curveFitting=1;orthogonalLoop=1;jettySize=auto;html=1;entryX=0.5;entryY=0;entryDx=0;entryDy=0;entryPerimeter=0;fontFamily=Architects Daughter;fontSource=https%3A%2F%2Ffonts.googleapis.com%2Fcss%3Ffamily%3DArchitects%2BDaughter;fontSize=16;" edge="1" parent="WIyWlLk6GJQsqaUBKTNV-1" source="7_ypvOIFX0uUqmCxVlpF-11" target="7_ypvOIFX0uUqmCxVlpF-17">
          <mxGeometry relative="1" as="geometry">
            <Array as="points">
              <mxPoint x="120" y="430" />
              <mxPoint x="280" y="430" />
              <mxPoint x="280" y="540" />
            </Array>
          </mxGeometry>
        </mxCell>
        <mxCell id="7_ypvOIFX0uUqmCxVlpF-11" value="Obtener la ruta" style="whiteSpace=wrap;html=1;fontSize=20;fontFamily=Architects Daughter;strokeWidth=2;sketch=1;hachureGap=4;jiggle=2;curveFitting=1;fontSource=https%3A%2F%2Ffonts.googleapis.com%2Fcss%3Ffamily%3DArchitects%2BDaughter;" vertex="1" parent="WIyWlLk6GJQsqaUBKTNV-1">
          <mxGeometry x="60" y="335" width="120" height="60" as="geometry" />
        </mxCell>
        <mxCell id="7_ypvOIFX0uUqmCxVlpF-20" style="edgeStyle=orthogonalEdgeStyle;rounded=0;sketch=1;hachureGap=4;jiggle=2;curveFitting=1;orthogonalLoop=1;jettySize=auto;html=1;fontFamily=Architects Daughter;fontSource=https%3A%2F%2Ffonts.googleapis.com%2Fcss%3Ffamily%3DArchitects%2BDaughter;fontSize=16;entryX=0.55;entryY=-0.087;entryDx=0;entryDy=0;entryPerimeter=0;" edge="1" parent="WIyWlLk6GJQsqaUBKTNV-1" source="7_ypvOIFX0uUqmCxVlpF-15" target="7_ypvOIFX0uUqmCxVlpF-17">
          <mxGeometry relative="1" as="geometry">
            <mxPoint x="430.0666666666666" y="480" as="targetPoint" />
            <Array as="points">
              <mxPoint x="610" y="430" />
              <mxPoint x="530" y="430" />
              <mxPoint x="530" y="540" />
              <mxPoint x="395" y="540" />
            </Array>
          </mxGeometry>
        </mxCell>
        <mxCell id="7_ypvOIFX0uUqmCxVlpF-15" value="Resolver a absoluta" style="whiteSpace=wrap;html=1;fontSize=20;fontFamily=Architects Daughter;strokeWidth=2;sketch=1;hachureGap=4;jiggle=2;curveFitting=1;fontSource=https%3A%2F%2Ffonts.googleapis.com%2Fcss%3Ffamily%3DArchitects%2BDaughter;" vertex="1" parent="WIyWlLk6GJQsqaUBKTNV-1">
          <mxGeometry x="561" y="335" width="120" height="60" as="geometry" />
        </mxCell>
        <mxCell id="7_ypvOIFX0uUqmCxVlpF-22" value="" style="edgeStyle=orthogonalEdgeStyle;rounded=0;sketch=1;hachureGap=4;jiggle=2;curveFitting=1;orthogonalLoop=1;jettySize=auto;html=1;fontFamily=Architects Daughter;fontSource=https%3A%2F%2Ffonts.googleapis.com%2Fcss%3Ffamily%3DArchitects%2BDaughter;fontSize=16;entryX=0.594;entryY=0.001;entryDx=0;entryDy=0;entryPerimeter=0;" edge="1" parent="WIyWlLk6GJQsqaUBKTNV-1" source="7_ypvOIFX0uUqmCxVlpF-17" target="7_ypvOIFX0uUqmCxVlpF-21">
          <mxGeometry relative="1" as="geometry" />
        </mxCell>
        <mxCell id="7_ypvOIFX0uUqmCxVlpF-24" value="" style="edgeStyle=orthogonalEdgeStyle;rounded=0;sketch=1;hachureGap=4;jiggle=2;curveFitting=1;orthogonalLoop=1;jettySize=auto;html=1;fontFamily=Architects Daughter;fontSource=https%3A%2F%2Ffonts.googleapis.com%2Fcss%3Ffamily%3DArchitects%2BDaughter;fontSize=16;" edge="1" parent="WIyWlLk6GJQsqaUBKTNV-1" source="7_ypvOIFX0uUqmCxVlpF-130" target="7_ypvOIFX0uUqmCxVlpF-23">
          <mxGeometry relative="1" as="geometry">
            <Array as="points">
              <mxPoint x="260" y="590" />
            </Array>
          </mxGeometry>
        </mxCell>
        <mxCell id="7_ypvOIFX0uUqmCxVlpF-17" value="Es un archivo" style="strokeWidth=2;html=1;shape=mxgraph.flowchart.decision;whiteSpace=wrap;sketch=1;hachureGap=4;jiggle=2;curveFitting=1;fontFamily=Architects Daughter;fontSource=https%3A%2F%2Ffonts.googleapis.com%2Fcss%3Ffamily%3DArchitects%2BDaughter;fontSize=20;" vertex="1" parent="WIyWlLk6GJQsqaUBKTNV-1">
          <mxGeometry x="340" y="540" width="100" height="100" as="geometry" />
        </mxCell>
        <mxCell id="7_ypvOIFX0uUqmCxVlpF-26" value="" style="edgeStyle=orthogonalEdgeStyle;rounded=0;sketch=1;hachureGap=4;jiggle=2;curveFitting=1;orthogonalLoop=1;jettySize=auto;html=1;fontFamily=Architects Daughter;fontSource=https%3A%2F%2Ffonts.googleapis.com%2Fcss%3Ffamily%3DArchitects%2BDaughter;fontSize=16;" edge="1" parent="WIyWlLk6GJQsqaUBKTNV-1" source="7_ypvOIFX0uUqmCxVlpF-21">
          <mxGeometry relative="1" as="geometry">
            <mxPoint x="521" y="770" as="targetPoint" />
          </mxGeometry>
        </mxCell>
        <mxCell id="7_ypvOIFX0uUqmCxVlpF-21" value="Es un directorio" style="whiteSpace=wrap;html=1;fontSize=20;fontFamily=Architects Daughter;strokeWidth=2;sketch=1;hachureGap=4;jiggle=2;curveFitting=1;fontSource=https%3A%2F%2Ffonts.googleapis.com%2Fcss%3Ffamily%3DArchitects%2BDaughter;" vertex="1" parent="WIyWlLk6GJQsqaUBKTNV-1">
          <mxGeometry x="461" y="630" width="120" height="60" as="geometry" />
        </mxCell>
        <mxCell id="7_ypvOIFX0uUqmCxVlpF-32" style="edgeStyle=orthogonalEdgeStyle;rounded=0;sketch=1;hachureGap=4;jiggle=2;curveFitting=1;orthogonalLoop=1;jettySize=auto;html=1;entryX=0.5;entryY=0;entryDx=0;entryDy=0;entryPerimeter=0;fontFamily=Architects Daughter;fontSource=https%3A%2F%2Ffonts.googleapis.com%2Fcss%3Ffamily%3DArchitects%2BDaughter;fontSize=16;" edge="1" parent="WIyWlLk6GJQsqaUBKTNV-1" source="7_ypvOIFX0uUqmCxVlpF-23" target="7_ypvOIFX0uUqmCxVlpF-31">
          <mxGeometry relative="1" as="geometry">
            <Array as="points">
              <mxPoint x="260" y="730" />
              <mxPoint x="389" y="730" />
            </Array>
          </mxGeometry>
        </mxCell>
        <mxCell id="7_ypvOIFX0uUqmCxVlpF-23" value="Leer los archivos" style="whiteSpace=wrap;html=1;fontSize=20;fontFamily=Architects Daughter;strokeWidth=2;sketch=1;hachureGap=4;jiggle=2;curveFitting=1;fontSource=https%3A%2F%2Ffonts.googleapis.com%2Fcss%3Ffamily%3DArchitects%2BDaughter;" vertex="1" parent="WIyWlLk6GJQsqaUBKTNV-1">
          <mxGeometry x="200" y="640" width="120" height="60" as="geometry" />
        </mxCell>
        <mxCell id="7_ypvOIFX0uUqmCxVlpF-34" style="edgeStyle=orthogonalEdgeStyle;rounded=0;sketch=1;hachureGap=4;jiggle=2;curveFitting=1;orthogonalLoop=1;jettySize=auto;html=1;fontFamily=Architects Daughter;fontSource=https%3A%2F%2Ffonts.googleapis.com%2Fcss%3Ffamily%3DArchitects%2BDaughter;fontSize=16;entryX=0.5;entryY=0;entryDx=0;entryDy=0;entryPerimeter=0;" edge="1" parent="WIyWlLk6GJQsqaUBKTNV-1" source="7_ypvOIFX0uUqmCxVlpF-30" target="7_ypvOIFX0uUqmCxVlpF-31">
          <mxGeometry relative="1" as="geometry">
            <mxPoint x="440" y="890" as="targetPoint" />
          </mxGeometry>
        </mxCell>
        <mxCell id="7_ypvOIFX0uUqmCxVlpF-30" value="recursivo" style="strokeWidth=2;html=1;shape=mxgraph.flowchart.start_2;whiteSpace=wrap;sketch=1;hachureGap=4;jiggle=2;curveFitting=1;fontFamily=Architects Daughter;fontSource=https%3A%2F%2Ffonts.googleapis.com%2Fcss%3Ffamily%3DArchitects%2BDaughter;fontSize=20;" vertex="1" parent="WIyWlLk6GJQsqaUBKTNV-1">
          <mxGeometry x="461" y="770" width="100" height="100" as="geometry" />
        </mxCell>
        <mxCell id="7_ypvOIFX0uUqmCxVlpF-36" value="" style="edgeStyle=orthogonalEdgeStyle;rounded=0;sketch=1;hachureGap=4;jiggle=2;curveFitting=1;orthogonalLoop=1;jettySize=auto;html=1;fontFamily=Architects Daughter;fontSource=https%3A%2F%2Ffonts.googleapis.com%2Fcss%3Ffamily%3DArchitects%2BDaughter;fontSize=16;" edge="1" parent="WIyWlLk6GJQsqaUBKTNV-1" source="7_ypvOIFX0uUqmCxVlpF-31" target="7_ypvOIFX0uUqmCxVlpF-35">
          <mxGeometry relative="1" as="geometry" />
        </mxCell>
        <mxCell id="7_ypvOIFX0uUqmCxVlpF-38" value="" style="edgeStyle=orthogonalEdgeStyle;rounded=0;sketch=1;hachureGap=4;jiggle=2;curveFitting=1;orthogonalLoop=1;jettySize=auto;html=1;fontFamily=Architects Daughter;fontSource=https%3A%2F%2Ffonts.googleapis.com%2Fcss%3Ffamily%3DArchitects%2BDaughter;fontSize=16;" edge="1" parent="WIyWlLk6GJQsqaUBKTNV-1" source="7_ypvOIFX0uUqmCxVlpF-132" target="7_ypvOIFX0uUqmCxVlpF-37">
          <mxGeometry relative="1" as="geometry" />
        </mxCell>
        <mxCell id="7_ypvOIFX0uUqmCxVlpF-31" value="Hay archivo .md" style="strokeWidth=2;html=1;shape=mxgraph.flowchart.decision;whiteSpace=wrap;sketch=1;hachureGap=4;jiggle=2;curveFitting=1;fontFamily=Architects Daughter;fontSource=https%3A%2F%2Ffonts.googleapis.com%2Fcss%3Ffamily%3DArchitects%2BDaughter;fontSize=20;" vertex="1" parent="WIyWlLk6GJQsqaUBKTNV-1">
          <mxGeometry x="339" y="910" width="100" height="100" as="geometry" />
        </mxCell>
        <mxCell id="7_ypvOIFX0uUqmCxVlpF-54" value="" style="edgeStyle=orthogonalEdgeStyle;rounded=0;sketch=1;hachureGap=4;jiggle=2;curveFitting=1;orthogonalLoop=1;jettySize=auto;html=1;fontFamily=Architects Daughter;fontSource=https%3A%2F%2Ffonts.googleapis.com%2Fcss%3Ffamily%3DArchitects%2BDaughter;fontSize=16;" edge="1" parent="WIyWlLk6GJQsqaUBKTNV-1" source="7_ypvOIFX0uUqmCxVlpF-35" target="7_ypvOIFX0uUqmCxVlpF-53">
          <mxGeometry relative="1" as="geometry" />
        </mxCell>
        <mxCell id="7_ypvOIFX0uUqmCxVlpF-35" value="La ruta no tiene .md" style="whiteSpace=wrap;html=1;fontSize=20;fontFamily=Architects Daughter;strokeWidth=2;sketch=1;hachureGap=4;jiggle=2;curveFitting=1;fontSource=https%3A%2F%2Ffonts.googleapis.com%2Fcss%3Ffamily%3DArchitects%2BDaughter;" vertex="1" parent="WIyWlLk6GJQsqaUBKTNV-1">
          <mxGeometry x="470" y="1030" width="120" height="60" as="geometry" />
        </mxCell>
        <mxCell id="7_ypvOIFX0uUqmCxVlpF-40" value="" style="edgeStyle=orthogonalEdgeStyle;rounded=0;sketch=1;hachureGap=4;jiggle=2;curveFitting=1;orthogonalLoop=1;jettySize=auto;html=1;fontFamily=Architects Daughter;fontSource=https%3A%2F%2Ffonts.googleapis.com%2Fcss%3Ffamily%3DArchitects%2BDaughter;fontSize=16;" edge="1" parent="WIyWlLk6GJQsqaUBKTNV-1" source="7_ypvOIFX0uUqmCxVlpF-37" target="7_ypvOIFX0uUqmCxVlpF-39">
          <mxGeometry relative="1" as="geometry" />
        </mxCell>
        <mxCell id="7_ypvOIFX0uUqmCxVlpF-37" value="obtener los archivos" style="whiteSpace=wrap;html=1;fontSize=20;fontFamily=Architects Daughter;strokeWidth=2;sketch=1;hachureGap=4;jiggle=2;curveFitting=1;fontSource=https%3A%2F%2Ffonts.googleapis.com%2Fcss%3Ffamily%3DArchitects%2BDaughter;" vertex="1" parent="WIyWlLk6GJQsqaUBKTNV-1">
          <mxGeometry x="190" y="1030" width="120" height="60" as="geometry" />
        </mxCell>
        <mxCell id="7_ypvOIFX0uUqmCxVlpF-42" value="" style="edgeStyle=orthogonalEdgeStyle;rounded=0;sketch=1;hachureGap=4;jiggle=2;curveFitting=1;orthogonalLoop=1;jettySize=auto;html=1;fontFamily=Architects Daughter;fontSource=https%3A%2F%2Ffonts.googleapis.com%2Fcss%3Ffamily%3DArchitects%2BDaughter;fontSize=16;" edge="1" parent="WIyWlLk6GJQsqaUBKTNV-1" source="7_ypvOIFX0uUqmCxVlpF-39" target="7_ypvOIFX0uUqmCxVlpF-41">
          <mxGeometry relative="1" as="geometry" />
        </mxCell>
        <mxCell id="7_ypvOIFX0uUqmCxVlpF-44" value="" style="edgeStyle=orthogonalEdgeStyle;rounded=0;sketch=1;hachureGap=4;jiggle=2;curveFitting=1;orthogonalLoop=1;jettySize=auto;html=1;fontFamily=Architects Daughter;fontSource=https%3A%2F%2Ffonts.googleapis.com%2Fcss%3Ffamily%3DArchitects%2BDaughter;fontSize=16;" edge="1" parent="WIyWlLk6GJQsqaUBKTNV-1" source="7_ypvOIFX0uUqmCxVlpF-39" target="7_ypvOIFX0uUqmCxVlpF-43">
          <mxGeometry relative="1" as="geometry" />
        </mxCell>
        <mxCell id="7_ypvOIFX0uUqmCxVlpF-39" value="Hay links?" style="rhombus;whiteSpace=wrap;html=1;fontSize=20;fontFamily=Architects Daughter;strokeWidth=2;sketch=1;hachureGap=4;jiggle=2;curveFitting=1;fontSource=https%3A%2F%2Ffonts.googleapis.com%2Fcss%3Ffamily%3DArchitects%2BDaughter;" vertex="1" parent="WIyWlLk6GJQsqaUBKTNV-1">
          <mxGeometry x="350" y="1240" width="80" height="80" as="geometry" />
        </mxCell>
        <mxCell id="7_ypvOIFX0uUqmCxVlpF-58" style="edgeStyle=orthogonalEdgeStyle;rounded=0;sketch=1;hachureGap=4;jiggle=2;curveFitting=1;orthogonalLoop=1;jettySize=auto;html=1;fontFamily=Architects Daughter;fontSource=https%3A%2F%2Ffonts.googleapis.com%2Fcss%3Ffamily%3DArchitects%2BDaughter;fontSize=16;" edge="1" parent="WIyWlLk6GJQsqaUBKTNV-1" source="7_ypvOIFX0uUqmCxVlpF-41">
          <mxGeometry relative="1" as="geometry">
            <mxPoint x="760" y="1380" as="targetPoint" />
          </mxGeometry>
        </mxCell>
        <mxCell id="7_ypvOIFX0uUqmCxVlpF-41" value="No hay links" style="whiteSpace=wrap;html=1;fontSize=20;fontFamily=Architects Daughter;strokeWidth=2;sketch=1;hachureGap=4;jiggle=2;curveFitting=1;fontSource=https%3A%2F%2Ffonts.googleapis.com%2Fcss%3Ffamily%3DArchitects%2BDaughter;" vertex="1" parent="WIyWlLk6GJQsqaUBKTNV-1">
          <mxGeometry x="450" y="1350" width="120" height="60" as="geometry" />
        </mxCell>
        <mxCell id="7_ypvOIFX0uUqmCxVlpF-46" value="" style="edgeStyle=orthogonalEdgeStyle;rounded=0;sketch=1;hachureGap=4;jiggle=2;curveFitting=1;orthogonalLoop=1;jettySize=auto;html=1;fontFamily=Architects Daughter;fontSource=https%3A%2F%2Ffonts.googleapis.com%2Fcss%3Ffamily%3DArchitects%2BDaughter;fontSize=16;" edge="1" parent="WIyWlLk6GJQsqaUBKTNV-1" source="7_ypvOIFX0uUqmCxVlpF-43" target="7_ypvOIFX0uUqmCxVlpF-45">
          <mxGeometry relative="1" as="geometry" />
        </mxCell>
        <mxCell id="7_ypvOIFX0uUqmCxVlpF-43" value="Extraer links" style="whiteSpace=wrap;html=1;fontSize=20;fontFamily=Architects Daughter;strokeWidth=2;sketch=1;hachureGap=4;jiggle=2;curveFitting=1;fontSource=https%3A%2F%2Ffonts.googleapis.com%2Fcss%3Ffamily%3DArchitects%2BDaughter;" vertex="1" parent="WIyWlLk6GJQsqaUBKTNV-1">
          <mxGeometry x="200" y="1360" width="120" height="60" as="geometry" />
        </mxCell>
        <mxCell id="7_ypvOIFX0uUqmCxVlpF-48" value="" style="edgeStyle=orthogonalEdgeStyle;rounded=0;sketch=1;hachureGap=4;jiggle=2;curveFitting=1;orthogonalLoop=1;jettySize=auto;html=1;fontFamily=Architects Daughter;fontSource=https%3A%2F%2Ffonts.googleapis.com%2Fcss%3Ffamily%3DArchitects%2BDaughter;fontSize=16;" edge="1" parent="WIyWlLk6GJQsqaUBKTNV-1" source="7_ypvOIFX0uUqmCxVlpF-45" target="7_ypvOIFX0uUqmCxVlpF-47">
          <mxGeometry relative="1" as="geometry" />
        </mxCell>
        <mxCell id="7_ypvOIFX0uUqmCxVlpF-45" value="Validar links" style="whiteSpace=wrap;html=1;fontSize=20;fontFamily=Architects Daughter;strokeWidth=2;sketch=1;hachureGap=4;jiggle=2;curveFitting=1;fontSource=https%3A%2F%2Ffonts.googleapis.com%2Fcss%3Ffamily%3DArchitects%2BDaughter;" vertex="1" parent="WIyWlLk6GJQsqaUBKTNV-1">
          <mxGeometry x="200" y="1500" width="120" height="60" as="geometry" />
        </mxCell>
        <mxCell id="7_ypvOIFX0uUqmCxVlpF-50" value="" style="edgeStyle=orthogonalEdgeStyle;rounded=0;sketch=1;hachureGap=4;jiggle=2;curveFitting=1;orthogonalLoop=1;jettySize=auto;html=1;fontFamily=Architects Daughter;fontSource=https%3A%2F%2Ffonts.googleapis.com%2Fcss%3Ffamily%3DArchitects%2BDaughter;fontSize=16;" edge="1" parent="WIyWlLk6GJQsqaUBKTNV-1" source="7_ypvOIFX0uUqmCxVlpF-47" target="7_ypvOIFX0uUqmCxVlpF-49">
          <mxGeometry relative="1" as="geometry" />
        </mxCell>
        <mxCell id="7_ypvOIFX0uUqmCxVlpF-52" value="" style="edgeStyle=orthogonalEdgeStyle;rounded=0;sketch=1;hachureGap=4;jiggle=2;curveFitting=1;orthogonalLoop=1;jettySize=auto;html=1;fontFamily=Architects Daughter;fontSource=https%3A%2F%2Ffonts.googleapis.com%2Fcss%3Ffamily%3DArchitects%2BDaughter;fontSize=16;" edge="1" parent="WIyWlLk6GJQsqaUBKTNV-1" source="7_ypvOIFX0uUqmCxVlpF-47" target="7_ypvOIFX0uUqmCxVlpF-51">
          <mxGeometry relative="1" as="geometry" />
        </mxCell>
        <mxCell id="7_ypvOIFX0uUqmCxVlpF-47" value="valido liks?" style="rhombus;whiteSpace=wrap;html=1;fontSize=20;fontFamily=Architects Daughter;strokeWidth=2;sketch=1;hachureGap=4;jiggle=2;curveFitting=1;fontSource=https%3A%2F%2Ffonts.googleapis.com%2Fcss%3Ffamily%3DArchitects%2BDaughter;" vertex="1" parent="WIyWlLk6GJQsqaUBKTNV-1">
          <mxGeometry x="400" y="1600" width="80" height="80" as="geometry" />
        </mxCell>
        <mxCell id="7_ypvOIFX0uUqmCxVlpF-62" style="edgeStyle=orthogonalEdgeStyle;rounded=0;sketch=1;hachureGap=4;jiggle=2;curveFitting=1;orthogonalLoop=1;jettySize=auto;html=1;fontFamily=Architects Daughter;fontSource=https%3A%2F%2Ffonts.googleapis.com%2Fcss%3Ffamily%3DArchitects%2BDaughter;fontSize=16;entryX=1.073;entryY=0.57;entryDx=0;entryDy=0;entryPerimeter=0;" edge="1" parent="WIyWlLk6GJQsqaUBKTNV-1" source="7_ypvOIFX0uUqmCxVlpF-49" target="7_ypvOIFX0uUqmCxVlpF-59">
          <mxGeometry relative="1" as="geometry">
            <mxPoint x="440" y="1870" as="targetPoint" />
            <Array as="points">
              <mxPoint x="572" y="1800" />
              <mxPoint x="570" y="1800" />
              <mxPoint x="570" y="1870" />
              <mxPoint x="509" y="1870" />
            </Array>
          </mxGeometry>
        </mxCell>
        <mxCell id="7_ypvOIFX0uUqmCxVlpF-49" value="fail" style="whiteSpace=wrap;html=1;fontSize=20;fontFamily=Architects Daughter;strokeWidth=2;sketch=1;hachureGap=4;jiggle=2;curveFitting=1;fontSource=https%3A%2F%2Ffonts.googleapis.com%2Fcss%3Ffamily%3DArchitects%2BDaughter;" vertex="1" parent="WIyWlLk6GJQsqaUBKTNV-1">
          <mxGeometry x="511.5" y="1730" width="120" height="60" as="geometry" />
        </mxCell>
        <mxCell id="7_ypvOIFX0uUqmCxVlpF-60" value="" style="edgeStyle=orthogonalEdgeStyle;rounded=0;sketch=1;hachureGap=4;jiggle=2;curveFitting=1;orthogonalLoop=1;jettySize=auto;html=1;fontFamily=Architects Daughter;fontSource=https%3A%2F%2Ffonts.googleapis.com%2Fcss%3Ffamily%3DArchitects%2BDaughter;fontSize=16;" edge="1" parent="WIyWlLk6GJQsqaUBKTNV-1" source="7_ypvOIFX0uUqmCxVlpF-51" target="7_ypvOIFX0uUqmCxVlpF-59">
          <mxGeometry relative="1" as="geometry">
            <Array as="points">
              <mxPoint x="320" y="1860" />
            </Array>
          </mxGeometry>
        </mxCell>
        <mxCell id="7_ypvOIFX0uUqmCxVlpF-51" value="ok" style="whiteSpace=wrap;html=1;fontSize=20;fontFamily=Architects Daughter;strokeWidth=2;sketch=1;hachureGap=4;jiggle=2;curveFitting=1;fontSource=https%3A%2F%2Ffonts.googleapis.com%2Fcss%3Ffamily%3DArchitects%2BDaughter;" vertex="1" parent="WIyWlLk6GJQsqaUBKTNV-1">
          <mxGeometry x="260" y="1730" width="120" height="60" as="geometry" />
        </mxCell>
        <mxCell id="7_ypvOIFX0uUqmCxVlpF-53" value="Fin" style="rounded=1;whiteSpace=wrap;html=1;fontSize=20;fontFamily=Architects Daughter;strokeWidth=2;sketch=1;hachureGap=4;jiggle=2;curveFitting=1;fontSource=https%3A%2F%2Ffonts.googleapis.com%2Fcss%3Ffamily%3DArchitects%2BDaughter;" vertex="1" parent="WIyWlLk6GJQsqaUBKTNV-1">
          <mxGeometry x="701" y="1990" width="120" height="60" as="geometry" />
        </mxCell>
        <mxCell id="7_ypvOIFX0uUqmCxVlpF-63" style="edgeStyle=orthogonalEdgeStyle;rounded=0;sketch=1;hachureGap=4;jiggle=2;curveFitting=1;orthogonalLoop=1;jettySize=auto;html=1;entryX=0;entryY=0.5;entryDx=0;entryDy=0;fontFamily=Architects Daughter;fontSource=https%3A%2F%2Ffonts.googleapis.com%2Fcss%3Ffamily%3DArchitects%2BDaughter;fontSize=16;" edge="1" parent="WIyWlLk6GJQsqaUBKTNV-1" source="7_ypvOIFX0uUqmCxVlpF-59" target="7_ypvOIFX0uUqmCxVlpF-53">
          <mxGeometry relative="1" as="geometry">
            <Array as="points">
              <mxPoint x="440" y="1930" />
              <mxPoint x="600" y="1930" />
              <mxPoint x="600" y="2020" />
            </Array>
          </mxGeometry>
        </mxCell>
        <mxCell id="7_ypvOIFX0uUqmCxVlpF-59" value="Retorna promesa" style="whiteSpace=wrap;html=1;fontSize=20;fontFamily=Architects Daughter;strokeWidth=2;sketch=1;hachureGap=4;jiggle=2;curveFitting=1;fontSource=https%3A%2F%2Ffonts.googleapis.com%2Fcss%3Ffamily%3DArchitects%2BDaughter;" vertex="1" parent="WIyWlLk6GJQsqaUBKTNV-1">
          <mxGeometry x="380" y="1830" width="120" height="60" as="geometry" />
        </mxCell>
        <mxCell id="7_ypvOIFX0uUqmCxVlpF-65" value="" style="edgeStyle=orthogonalEdgeStyle;rounded=0;sketch=1;hachureGap=4;jiggle=2;curveFitting=1;orthogonalLoop=1;jettySize=auto;html=1;fontFamily=Architects Daughter;fontSource=https%3A%2F%2Ffonts.googleapis.com%2Fcss%3Ffamily%3DArchitects%2BDaughter;fontSize=16;" edge="1" parent="WIyWlLk6GJQsqaUBKTNV-1" source="7_ypvOIFX0uUqmCxVlpF-124" target="7_ypvOIFX0uUqmCxVlpF-64">
          <mxGeometry relative="1" as="geometry">
            <mxPoint x="512" y="150" as="sourcePoint" />
            <mxPoint x="370" y="200" as="targetPoint" />
            <Array as="points">
              <mxPoint x="379" y="150" />
            </Array>
          </mxGeometry>
        </mxCell>
        <mxCell id="7_ypvOIFX0uUqmCxVlpF-66" value="" style="edgeStyle=orthogonalEdgeStyle;rounded=0;sketch=1;hachureGap=4;jiggle=2;curveFitting=1;orthogonalLoop=1;jettySize=auto;html=1;fontFamily=Architects Daughter;fontSource=https%3A%2F%2Ffonts.googleapis.com%2Fcss%3Ffamily%3DArchitects%2BDaughter;fontSize=16;" edge="1" parent="WIyWlLk6GJQsqaUBKTNV-1" source="7_ypvOIFX0uUqmCxVlpF-64" target="7_ypvOIFX0uUqmCxVlpF-9">
          <mxGeometry relative="1" as="geometry" />
        </mxCell>
        <mxCell id="7_ypvOIFX0uUqmCxVlpF-64" value="True" style="whiteSpace=wrap;html=1;fontSize=20;fontFamily=Architects Daughter;strokeWidth=2;sketch=1;hachureGap=4;jiggle=2;curveFitting=1;fontSource=https%3A%2F%2Ffonts.googleapis.com%2Fcss%3Ffamily%3DArchitects%2BDaughter;" vertex="1" parent="WIyWlLk6GJQsqaUBKTNV-1">
          <mxGeometry x="319" y="200" width="120" height="60" as="geometry" />
        </mxCell>
        <mxCell id="7_ypvOIFX0uUqmCxVlpF-69" value="Start CLI" style="rounded=1;whiteSpace=wrap;html=1;fontSize=12;glass=0;strokeWidth=1;shadow=0;strokeColor=#0F8B8D;fillColor=#FAE5C7;labelBackgroundColor=none;fontColor=#143642;arcSize=0;" vertex="1" parent="WIyWlLk6GJQsqaUBKTNV-1">
          <mxGeometry x="1230" y="10" width="150" height="40" as="geometry" />
        </mxCell>
        <mxCell id="7_ypvOIFX0uUqmCxVlpF-73" value="" style="edgeStyle=orthogonalEdgeStyle;rounded=0;sketch=1;hachureGap=4;jiggle=2;curveFitting=1;orthogonalLoop=1;jettySize=auto;html=1;fontFamily=Architects Daughter;fontSource=https%3A%2F%2Ffonts.googleapis.com%2Fcss%3Ffamily%3DArchitects%2BDaughter;fontSize=16;" edge="1" parent="WIyWlLk6GJQsqaUBKTNV-1" source="7_ypvOIFX0uUqmCxVlpF-72" target="7_ypvOIFX0uUqmCxVlpF-69">
          <mxGeometry relative="1" as="geometry" />
        </mxCell>
        <mxCell id="7_ypvOIFX0uUqmCxVlpF-76" value="" style="edgeStyle=orthogonalEdgeStyle;rounded=0;sketch=1;hachureGap=4;jiggle=2;curveFitting=1;orthogonalLoop=1;jettySize=auto;html=1;fontFamily=Architects Daughter;fontSource=https%3A%2F%2Ffonts.googleapis.com%2Fcss%3Ffamily%3DArchitects%2BDaughter;fontSize=16;" edge="1" parent="WIyWlLk6GJQsqaUBKTNV-1" source="7_ypvOIFX0uUqmCxVlpF-110" target="7_ypvOIFX0uUqmCxVlpF-75">
          <mxGeometry relative="1" as="geometry" />
        </mxCell>
        <mxCell id="7_ypvOIFX0uUqmCxVlpF-78" value="" style="edgeStyle=orthogonalEdgeStyle;rounded=0;sketch=1;hachureGap=4;jiggle=2;curveFitting=1;orthogonalLoop=1;jettySize=auto;html=1;fontFamily=Architects Daughter;fontSource=https%3A%2F%2Ffonts.googleapis.com%2Fcss%3Ffamily%3DArchitects%2BDaughter;fontSize=16;" edge="1" parent="WIyWlLk6GJQsqaUBKTNV-1" source="7_ypvOIFX0uUqmCxVlpF-107" target="7_ypvOIFX0uUqmCxVlpF-77">
          <mxGeometry relative="1" as="geometry" />
        </mxCell>
        <mxCell id="7_ypvOIFX0uUqmCxVlpF-72" value="Recibe path?" style="strokeWidth=2;html=1;shape=mxgraph.flowchart.decision;whiteSpace=wrap;sketch=1;hachureGap=4;jiggle=2;curveFitting=1;fontFamily=Architects Daughter;fontSource=https%3A%2F%2Ffonts.googleapis.com%2Fcss%3Ffamily%3DArchitects%2BDaughter;fontSize=20;" vertex="1" parent="WIyWlLk6GJQsqaUBKTNV-1">
          <mxGeometry x="1255" y="100" width="100" height="100" as="geometry" />
        </mxCell>
        <mxCell id="7_ypvOIFX0uUqmCxVlpF-75" value="Fin" style="rounded=1;whiteSpace=wrap;html=1;fontSize=20;fontFamily=Architects Daughter;strokeWidth=2;sketch=1;hachureGap=4;jiggle=2;curveFitting=1;fontSource=https%3A%2F%2Ffonts.googleapis.com%2Fcss%3Ffamily%3DArchitects%2BDaughter;" vertex="1" parent="WIyWlLk6GJQsqaUBKTNV-1">
          <mxGeometry x="1490" y="740" width="120" height="60" as="geometry" />
        </mxCell>
        <mxCell id="7_ypvOIFX0uUqmCxVlpF-80" value="" style="edgeStyle=orthogonalEdgeStyle;rounded=0;sketch=1;hachureGap=4;jiggle=2;curveFitting=1;orthogonalLoop=1;jettySize=auto;html=1;fontFamily=Architects Daughter;fontSource=https%3A%2F%2Ffonts.googleapis.com%2Fcss%3Ffamily%3DArchitects%2BDaughter;fontSize=16;" edge="1" parent="WIyWlLk6GJQsqaUBKTNV-1" source="7_ypvOIFX0uUqmCxVlpF-77" target="7_ypvOIFX0uUqmCxVlpF-79">
          <mxGeometry relative="1" as="geometry" />
        </mxCell>
        <mxCell id="7_ypvOIFX0uUqmCxVlpF-77" value="Función MD links" style="whiteSpace=wrap;html=1;fontSize=20;fontFamily=Architects Daughter;strokeWidth=2;sketch=1;hachureGap=4;jiggle=2;curveFitting=1;fontSource=https%3A%2F%2Ffonts.googleapis.com%2Fcss%3Ffamily%3DArchitects%2BDaughter;" vertex="1" parent="WIyWlLk6GJQsqaUBKTNV-1">
          <mxGeometry x="960" y="220" width="120" height="60" as="geometry" />
        </mxCell>
        <mxCell id="7_ypvOIFX0uUqmCxVlpF-86" value="" style="edgeStyle=orthogonalEdgeStyle;rounded=0;sketch=1;hachureGap=4;jiggle=2;curveFitting=1;orthogonalLoop=1;jettySize=auto;html=1;fontFamily=Architects Daughter;fontSource=https%3A%2F%2Ffonts.googleapis.com%2Fcss%3Ffamily%3DArchitects%2BDaughter;fontSize=16;" edge="1" parent="WIyWlLk6GJQsqaUBKTNV-1" source="7_ypvOIFX0uUqmCxVlpF-112" target="7_ypvOIFX0uUqmCxVlpF-85">
          <mxGeometry relative="1" as="geometry" />
        </mxCell>
        <mxCell id="7_ypvOIFX0uUqmCxVlpF-88" value="" style="edgeStyle=orthogonalEdgeStyle;rounded=0;sketch=1;hachureGap=4;jiggle=2;curveFitting=1;orthogonalLoop=1;jettySize=auto;html=1;fontFamily=Architects Daughter;fontSource=https%3A%2F%2Ffonts.googleapis.com%2Fcss%3Ffamily%3DArchitects%2BDaughter;fontSize=16;" edge="1" parent="WIyWlLk6GJQsqaUBKTNV-1" source="7_ypvOIFX0uUqmCxVlpF-114" target="7_ypvOIFX0uUqmCxVlpF-87">
          <mxGeometry relative="1" as="geometry">
            <Array as="points">
              <mxPoint x="1280" y="390" />
              <mxPoint x="1280" y="390" />
            </Array>
          </mxGeometry>
        </mxCell>
        <mxCell id="7_ypvOIFX0uUqmCxVlpF-79" value="&lt;div&gt;validate&lt;/div&gt;&lt;div&gt;&amp;nbsp;is true&lt;/div&gt;" style="rhombus;whiteSpace=wrap;html=1;fontSize=20;fontFamily=Architects Daughter;strokeWidth=2;sketch=1;hachureGap=4;jiggle=2;curveFitting=1;fontSource=https%3A%2F%2Ffonts.googleapis.com%2Fcss%3Ffamily%3DArchitects%2BDaughter;" vertex="1" parent="WIyWlLk6GJQsqaUBKTNV-1">
          <mxGeometry x="965" y="350" width="110" height="80" as="geometry" />
        </mxCell>
        <mxCell id="7_ypvOIFX0uUqmCxVlpF-98" value="" style="edgeStyle=orthogonalEdgeStyle;rounded=0;sketch=1;hachureGap=4;jiggle=2;curveFitting=1;orthogonalLoop=1;jettySize=auto;html=1;fontFamily=Architects Daughter;fontSource=https%3A%2F%2Ffonts.googleapis.com%2Fcss%3Ffamily%3DArchitects%2BDaughter;fontSize=16;" edge="1" parent="WIyWlLk6GJQsqaUBKTNV-1" source="7_ypvOIFX0uUqmCxVlpF-120" target="7_ypvOIFX0uUqmCxVlpF-97">
          <mxGeometry relative="1" as="geometry" />
        </mxCell>
        <mxCell id="7_ypvOIFX0uUqmCxVlpF-100" value="" style="edgeStyle=orthogonalEdgeStyle;rounded=0;sketch=1;hachureGap=4;jiggle=2;curveFitting=1;orthogonalLoop=1;jettySize=auto;html=1;fontFamily=Architects Daughter;fontSource=https%3A%2F%2Ffonts.googleapis.com%2Fcss%3Ffamily%3DArchitects%2BDaughter;fontSize=16;" edge="1" parent="WIyWlLk6GJQsqaUBKTNV-1" source="7_ypvOIFX0uUqmCxVlpF-122" target="7_ypvOIFX0uUqmCxVlpF-99">
          <mxGeometry relative="1" as="geometry" />
        </mxCell>
        <mxCell id="7_ypvOIFX0uUqmCxVlpF-85" value="--stats?" style="rhombus;whiteSpace=wrap;html=1;fontSize=20;fontFamily=Architects Daughter;strokeWidth=2;sketch=1;hachureGap=4;jiggle=2;curveFitting=1;fontSource=https%3A%2F%2Ffonts.googleapis.com%2Fcss%3Ffamily%3DArchitects%2BDaughter;" vertex="1" parent="WIyWlLk6GJQsqaUBKTNV-1">
          <mxGeometry x="870" y="480" width="80" height="80" as="geometry" />
        </mxCell>
        <mxCell id="7_ypvOIFX0uUqmCxVlpF-92" value="" style="edgeStyle=orthogonalEdgeStyle;rounded=0;sketch=1;hachureGap=4;jiggle=2;curveFitting=1;orthogonalLoop=1;jettySize=auto;html=1;fontFamily=Architects Daughter;fontSource=https%3A%2F%2Ffonts.googleapis.com%2Fcss%3Ffamily%3DArchitects%2BDaughter;fontSize=16;" edge="1" parent="WIyWlLk6GJQsqaUBKTNV-1" source="7_ypvOIFX0uUqmCxVlpF-118" target="7_ypvOIFX0uUqmCxVlpF-91">
          <mxGeometry relative="1" as="geometry">
            <Array as="points">
              <mxPoint x="1445" y="430" />
            </Array>
          </mxGeometry>
        </mxCell>
        <mxCell id="7_ypvOIFX0uUqmCxVlpF-95" value="" style="edgeStyle=orthogonalEdgeStyle;rounded=0;sketch=1;hachureGap=4;jiggle=2;curveFitting=1;orthogonalLoop=1;jettySize=auto;html=1;fontFamily=Architects Daughter;fontSource=https%3A%2F%2Ffonts.googleapis.com%2Fcss%3Ffamily%3DArchitects%2BDaughter;fontSize=16;" edge="1" parent="WIyWlLk6GJQsqaUBKTNV-1" source="7_ypvOIFX0uUqmCxVlpF-116" target="7_ypvOIFX0uUqmCxVlpF-94">
          <mxGeometry relative="1" as="geometry" />
        </mxCell>
        <mxCell id="7_ypvOIFX0uUqmCxVlpF-87" value="--stats?" style="rhombus;whiteSpace=wrap;html=1;fontSize=20;fontFamily=Architects Daughter;strokeWidth=2;sketch=1;hachureGap=4;jiggle=2;curveFitting=1;fontSource=https%3A%2F%2Ffonts.googleapis.com%2Fcss%3Ffamily%3DArchitects%2BDaughter;" vertex="1" parent="WIyWlLk6GJQsqaUBKTNV-1">
          <mxGeometry x="1290" y="390" width="80" height="80" as="geometry" />
        </mxCell>
        <mxCell id="7_ypvOIFX0uUqmCxVlpF-93" style="edgeStyle=orthogonalEdgeStyle;rounded=0;sketch=1;hachureGap=4;jiggle=2;curveFitting=1;orthogonalLoop=1;jettySize=auto;html=1;entryX=0;entryY=0.25;entryDx=0;entryDy=0;fontFamily=Architects Daughter;fontSource=https%3A%2F%2Ffonts.googleapis.com%2Fcss%3Ffamily%3DArchitects%2BDaughter;fontSize=16;" edge="1" parent="WIyWlLk6GJQsqaUBKTNV-1" source="7_ypvOIFX0uUqmCxVlpF-91" target="7_ypvOIFX0uUqmCxVlpF-75">
          <mxGeometry relative="1" as="geometry" />
        </mxCell>
        <mxCell id="7_ypvOIFX0uUqmCxVlpF-91" value="&lt;div&gt;[href, text, file]&lt;/div&gt;&lt;div&gt;max 50 char&lt;br&gt;&lt;/div&gt;" style="whiteSpace=wrap;html=1;fontSize=20;fontFamily=Architects Daughter;strokeWidth=2;sketch=1;hachureGap=4;jiggle=2;curveFitting=1;fontSource=https%3A%2F%2Ffonts.googleapis.com%2Fcss%3Ffamily%3DArchitects%2BDaughter;" vertex="1" parent="WIyWlLk6GJQsqaUBKTNV-1">
          <mxGeometry x="1370" y="510" width="170" height="60" as="geometry" />
        </mxCell>
        <mxCell id="7_ypvOIFX0uUqmCxVlpF-96" style="edgeStyle=orthogonalEdgeStyle;rounded=0;sketch=1;hachureGap=4;jiggle=2;curveFitting=1;orthogonalLoop=1;jettySize=auto;html=1;entryX=0;entryY=0.75;entryDx=0;entryDy=0;fontFamily=Architects Daughter;fontSource=https%3A%2F%2Ffonts.googleapis.com%2Fcss%3Ffamily%3DArchitects%2BDaughter;fontSize=16;" edge="1" parent="WIyWlLk6GJQsqaUBKTNV-1" source="7_ypvOIFX0uUqmCxVlpF-94" target="7_ypvOIFX0uUqmCxVlpF-75">
          <mxGeometry relative="1" as="geometry">
            <Array as="points">
              <mxPoint x="1195" y="785" />
            </Array>
          </mxGeometry>
        </mxCell>
        <mxCell id="7_ypvOIFX0uUqmCxVlpF-94" value="Total, Unique" style="whiteSpace=wrap;html=1;fontSize=20;fontFamily=Architects Daughter;strokeWidth=2;sketch=1;hachureGap=4;jiggle=2;curveFitting=1;fontSource=https%3A%2F%2Ffonts.googleapis.com%2Fcss%3Ffamily%3DArchitects%2BDaughter;" vertex="1" parent="WIyWlLk6GJQsqaUBKTNV-1">
          <mxGeometry x="1135" y="510" width="120" height="60" as="geometry" />
        </mxCell>
        <mxCell id="7_ypvOIFX0uUqmCxVlpF-106" style="edgeStyle=orthogonalEdgeStyle;rounded=0;sketch=1;hachureGap=4;jiggle=2;curveFitting=1;orthogonalLoop=1;jettySize=auto;html=1;entryX=0.5;entryY=1;entryDx=0;entryDy=0;fontFamily=Architects Daughter;fontSource=https%3A%2F%2Ffonts.googleapis.com%2Fcss%3Ffamily%3DArchitects%2BDaughter;fontSize=16;" edge="1" parent="WIyWlLk6GJQsqaUBKTNV-1" source="7_ypvOIFX0uUqmCxVlpF-97" target="7_ypvOIFX0uUqmCxVlpF-75">
          <mxGeometry relative="1" as="geometry" />
        </mxCell>
        <mxCell id="7_ypvOIFX0uUqmCxVlpF-97" value="&lt;div&gt;[href, text, file, status, ok o fail]&lt;/div&gt;&lt;div&gt;max 50 char&lt;br&gt;&lt;/div&gt;" style="whiteSpace=wrap;html=1;fontSize=20;fontFamily=Architects Daughter;strokeWidth=2;sketch=1;hachureGap=4;jiggle=2;curveFitting=1;fontSource=https%3A%2F%2Ffonts.googleapis.com%2Fcss%3Ffamily%3DArchitects%2BDaughter;" vertex="1" parent="WIyWlLk6GJQsqaUBKTNV-1">
          <mxGeometry x="850" y="870" width="350" height="60" as="geometry" />
        </mxCell>
        <mxCell id="7_ypvOIFX0uUqmCxVlpF-105" style="edgeStyle=orthogonalEdgeStyle;rounded=0;sketch=1;hachureGap=4;jiggle=2;curveFitting=1;orthogonalLoop=1;jettySize=auto;html=1;entryX=0;entryY=1;entryDx=0;entryDy=0;fontFamily=Architects Daughter;fontSource=https%3A%2F%2Ffonts.googleapis.com%2Fcss%3Ffamily%3DArchitects%2BDaughter;fontSize=16;" edge="1" parent="WIyWlLk6GJQsqaUBKTNV-1" source="7_ypvOIFX0uUqmCxVlpF-99" target="7_ypvOIFX0uUqmCxVlpF-75">
          <mxGeometry relative="1" as="geometry">
            <Array as="points">
              <mxPoint x="1050" y="820" />
              <mxPoint x="1490" y="820" />
            </Array>
          </mxGeometry>
        </mxCell>
        <mxCell id="7_ypvOIFX0uUqmCxVlpF-99" value="Total, Unique, Broken" style="whiteSpace=wrap;html=1;fontSize=20;fontFamily=Architects Daughter;strokeWidth=2;sketch=1;hachureGap=4;jiggle=2;curveFitting=1;fontSource=https%3A%2F%2Ffonts.googleapis.com%2Fcss%3Ffamily%3DArchitects%2BDaughter;" vertex="1" parent="WIyWlLk6GJQsqaUBKTNV-1">
          <mxGeometry x="990" y="580" width="120" height="60" as="geometry" />
        </mxCell>
        <mxCell id="7_ypvOIFX0uUqmCxVlpF-109" value="" style="edgeStyle=orthogonalEdgeStyle;rounded=0;sketch=1;hachureGap=4;jiggle=2;curveFitting=1;orthogonalLoop=1;jettySize=auto;html=1;fontFamily=Architects Daughter;fontSource=https%3A%2F%2Ffonts.googleapis.com%2Fcss%3Ffamily%3DArchitects%2BDaughter;fontSize=16;" edge="1" parent="WIyWlLk6GJQsqaUBKTNV-1" source="7_ypvOIFX0uUqmCxVlpF-72" target="7_ypvOIFX0uUqmCxVlpF-107">
          <mxGeometry relative="1" as="geometry">
            <mxPoint x="1255" y="150" as="sourcePoint" />
            <mxPoint x="1020" y="220" as="targetPoint" />
          </mxGeometry>
        </mxCell>
        <mxCell id="7_ypvOIFX0uUqmCxVlpF-107" value="Si" style="text;strokeColor=none;align=center;fillColor=none;html=1;verticalAlign=middle;whiteSpace=wrap;rounded=0;fontSize=20;fontFamily=Architects Daughter;" vertex="1" parent="WIyWlLk6GJQsqaUBKTNV-1">
          <mxGeometry x="1130" y="135" width="60" height="30" as="geometry" />
        </mxCell>
        <mxCell id="7_ypvOIFX0uUqmCxVlpF-111" value="" style="edgeStyle=orthogonalEdgeStyle;rounded=0;sketch=1;hachureGap=4;jiggle=2;curveFitting=1;orthogonalLoop=1;jettySize=auto;html=1;fontFamily=Architects Daughter;fontSource=https%3A%2F%2Ffonts.googleapis.com%2Fcss%3Ffamily%3DArchitects%2BDaughter;fontSize=16;" edge="1" parent="WIyWlLk6GJQsqaUBKTNV-1" source="7_ypvOIFX0uUqmCxVlpF-72" target="7_ypvOIFX0uUqmCxVlpF-110">
          <mxGeometry relative="1" as="geometry">
            <mxPoint x="1355" y="150" as="sourcePoint" />
            <mxPoint x="1550" y="740" as="targetPoint" />
          </mxGeometry>
        </mxCell>
        <mxCell id="7_ypvOIFX0uUqmCxVlpF-110" value="No" style="text;strokeColor=none;align=center;fillColor=none;html=1;verticalAlign=middle;whiteSpace=wrap;rounded=0;fontSize=20;fontFamily=Architects Daughter;" vertex="1" parent="WIyWlLk6GJQsqaUBKTNV-1">
          <mxGeometry x="1420" y="135" width="60" height="30" as="geometry" />
        </mxCell>
        <mxCell id="7_ypvOIFX0uUqmCxVlpF-113" value="" style="edgeStyle=orthogonalEdgeStyle;rounded=0;sketch=1;hachureGap=4;jiggle=2;curveFitting=1;orthogonalLoop=1;jettySize=auto;html=1;fontFamily=Architects Daughter;fontSource=https%3A%2F%2Ffonts.googleapis.com%2Fcss%3Ffamily%3DArchitects%2BDaughter;fontSize=16;" edge="1" parent="WIyWlLk6GJQsqaUBKTNV-1" source="7_ypvOIFX0uUqmCxVlpF-79" target="7_ypvOIFX0uUqmCxVlpF-112">
          <mxGeometry relative="1" as="geometry">
            <mxPoint x="965" y="390" as="sourcePoint" />
            <mxPoint x="910" y="480" as="targetPoint" />
          </mxGeometry>
        </mxCell>
        <mxCell id="7_ypvOIFX0uUqmCxVlpF-112" value="Si" style="text;strokeColor=none;align=center;fillColor=none;html=1;verticalAlign=middle;whiteSpace=wrap;rounded=0;fontSize=20;fontFamily=Architects Daughter;" vertex="1" parent="WIyWlLk6GJQsqaUBKTNV-1">
          <mxGeometry x="880" y="375" width="60" height="30" as="geometry" />
        </mxCell>
        <mxCell id="7_ypvOIFX0uUqmCxVlpF-115" value="" style="edgeStyle=orthogonalEdgeStyle;rounded=0;sketch=1;hachureGap=4;jiggle=2;curveFitting=1;orthogonalLoop=1;jettySize=auto;html=1;fontFamily=Architects Daughter;fontSource=https%3A%2F%2Ffonts.googleapis.com%2Fcss%3Ffamily%3DArchitects%2BDaughter;fontSize=16;" edge="1" parent="WIyWlLk6GJQsqaUBKTNV-1" source="7_ypvOIFX0uUqmCxVlpF-79" target="7_ypvOIFX0uUqmCxVlpF-114">
          <mxGeometry relative="1" as="geometry">
            <mxPoint x="1075" y="390" as="sourcePoint" />
            <mxPoint x="1308" y="412" as="targetPoint" />
            <Array as="points" />
          </mxGeometry>
        </mxCell>
        <mxCell id="7_ypvOIFX0uUqmCxVlpF-114" value="No" style="text;strokeColor=none;align=center;fillColor=none;html=1;verticalAlign=middle;whiteSpace=wrap;rounded=0;fontSize=20;fontFamily=Architects Daughter;" vertex="1" parent="WIyWlLk6GJQsqaUBKTNV-1">
          <mxGeometry x="1140" y="375" width="60" height="30" as="geometry" />
        </mxCell>
        <mxCell id="7_ypvOIFX0uUqmCxVlpF-117" value="" style="edgeStyle=orthogonalEdgeStyle;rounded=0;sketch=1;hachureGap=4;jiggle=2;curveFitting=1;orthogonalLoop=1;jettySize=auto;html=1;fontFamily=Architects Daughter;fontSource=https%3A%2F%2Ffonts.googleapis.com%2Fcss%3Ffamily%3DArchitects%2BDaughter;fontSize=16;" edge="1" parent="WIyWlLk6GJQsqaUBKTNV-1" source="7_ypvOIFX0uUqmCxVlpF-87" target="7_ypvOIFX0uUqmCxVlpF-116">
          <mxGeometry relative="1" as="geometry">
            <mxPoint x="1290" y="430" as="sourcePoint" />
            <mxPoint x="1195" y="510" as="targetPoint" />
          </mxGeometry>
        </mxCell>
        <mxCell id="7_ypvOIFX0uUqmCxVlpF-116" value="Si" style="text;strokeColor=none;align=center;fillColor=none;html=1;verticalAlign=middle;whiteSpace=wrap;rounded=0;fontSize=20;fontFamily=Architects Daughter;" vertex="1" parent="WIyWlLk6GJQsqaUBKTNV-1">
          <mxGeometry x="1165" y="415" width="60" height="30" as="geometry" />
        </mxCell>
        <mxCell id="7_ypvOIFX0uUqmCxVlpF-119" value="" style="edgeStyle=orthogonalEdgeStyle;rounded=0;sketch=1;hachureGap=4;jiggle=2;curveFitting=1;orthogonalLoop=1;jettySize=auto;html=1;fontFamily=Architects Daughter;fontSource=https%3A%2F%2Ffonts.googleapis.com%2Fcss%3Ffamily%3DArchitects%2BDaughter;fontSize=16;" edge="1" parent="WIyWlLk6GJQsqaUBKTNV-1" source="7_ypvOIFX0uUqmCxVlpF-87" target="7_ypvOIFX0uUqmCxVlpF-118">
          <mxGeometry relative="1" as="geometry">
            <mxPoint x="1370" y="430" as="sourcePoint" />
            <mxPoint x="1445" y="510" as="targetPoint" />
            <Array as="points" />
          </mxGeometry>
        </mxCell>
        <mxCell id="7_ypvOIFX0uUqmCxVlpF-118" value="No" style="text;strokeColor=none;align=center;fillColor=none;html=1;verticalAlign=middle;whiteSpace=wrap;rounded=0;fontSize=20;fontFamily=Architects Daughter;" vertex="1" parent="WIyWlLk6GJQsqaUBKTNV-1">
          <mxGeometry x="1400" y="415" width="60" height="30" as="geometry" />
        </mxCell>
        <mxCell id="7_ypvOIFX0uUqmCxVlpF-121" value="" style="edgeStyle=orthogonalEdgeStyle;rounded=0;sketch=1;hachureGap=4;jiggle=2;curveFitting=1;orthogonalLoop=1;jettySize=auto;html=1;fontFamily=Architects Daughter;fontSource=https%3A%2F%2Ffonts.googleapis.com%2Fcss%3Ffamily%3DArchitects%2BDaughter;fontSize=16;" edge="1" parent="WIyWlLk6GJQsqaUBKTNV-1" source="7_ypvOIFX0uUqmCxVlpF-85" target="7_ypvOIFX0uUqmCxVlpF-120">
          <mxGeometry relative="1" as="geometry">
            <mxPoint x="910" y="560" as="sourcePoint" />
            <mxPoint x="1025" y="870" as="targetPoint" />
          </mxGeometry>
        </mxCell>
        <mxCell id="7_ypvOIFX0uUqmCxVlpF-120" value="No" style="text;strokeColor=none;align=center;fillColor=none;html=1;verticalAlign=middle;whiteSpace=wrap;rounded=0;fontSize=20;fontFamily=Architects Daughter;" vertex="1" parent="WIyWlLk6GJQsqaUBKTNV-1">
          <mxGeometry x="880" y="610" width="60" height="30" as="geometry" />
        </mxCell>
        <mxCell id="7_ypvOIFX0uUqmCxVlpF-123" value="" style="edgeStyle=orthogonalEdgeStyle;rounded=0;sketch=1;hachureGap=4;jiggle=2;curveFitting=1;orthogonalLoop=1;jettySize=auto;html=1;fontFamily=Architects Daughter;fontSource=https%3A%2F%2Ffonts.googleapis.com%2Fcss%3Ffamily%3DArchitects%2BDaughter;fontSize=16;" edge="1" parent="WIyWlLk6GJQsqaUBKTNV-1" source="7_ypvOIFX0uUqmCxVlpF-85" target="7_ypvOIFX0uUqmCxVlpF-122">
          <mxGeometry relative="1" as="geometry">
            <mxPoint x="950" y="520" as="sourcePoint" />
            <mxPoint x="1050" y="580" as="targetPoint" />
          </mxGeometry>
        </mxCell>
        <mxCell id="7_ypvOIFX0uUqmCxVlpF-122" value="Si" style="text;strokeColor=none;align=center;fillColor=none;html=1;verticalAlign=middle;whiteSpace=wrap;rounded=0;fontSize=20;fontFamily=Architects Daughter;" vertex="1" parent="WIyWlLk6GJQsqaUBKTNV-1">
          <mxGeometry x="1020" y="505" width="60" height="30" as="geometry" />
        </mxCell>
        <mxCell id="7_ypvOIFX0uUqmCxVlpF-125" value="" style="edgeStyle=orthogonalEdgeStyle;rounded=0;sketch=1;hachureGap=4;jiggle=2;curveFitting=1;orthogonalLoop=1;jettySize=auto;html=1;fontFamily=Architects Daughter;fontSource=https%3A%2F%2Ffonts.googleapis.com%2Fcss%3Ffamily%3DArchitects%2BDaughter;fontSize=16;" edge="1" parent="WIyWlLk6GJQsqaUBKTNV-1" source="7_ypvOIFX0uUqmCxVlpF-2" target="7_ypvOIFX0uUqmCxVlpF-124">
          <mxGeometry relative="1" as="geometry">
            <mxPoint x="512" y="150" as="sourcePoint" />
            <mxPoint x="379" y="200" as="targetPoint" />
            <Array as="points" />
          </mxGeometry>
        </mxCell>
        <mxCell id="7_ypvOIFX0uUqmCxVlpF-124" value="Si" style="text;strokeColor=none;align=center;fillColor=none;html=1;verticalAlign=middle;whiteSpace=wrap;rounded=0;fontSize=20;fontFamily=Architects Daughter;" vertex="1" parent="WIyWlLk6GJQsqaUBKTNV-1">
          <mxGeometry x="414" y="130" width="60" height="40" as="geometry" />
        </mxCell>
        <mxCell id="7_ypvOIFX0uUqmCxVlpF-127" value="" style="edgeStyle=orthogonalEdgeStyle;rounded=0;sketch=1;hachureGap=4;jiggle=2;curveFitting=1;orthogonalLoop=1;jettySize=auto;html=1;fontFamily=Architects Daughter;fontSource=https%3A%2F%2Ffonts.googleapis.com%2Fcss%3Ffamily%3DArchitects%2BDaughter;fontSize=16;" edge="1" parent="WIyWlLk6GJQsqaUBKTNV-1" source="7_ypvOIFX0uUqmCxVlpF-2" target="7_ypvOIFX0uUqmCxVlpF-126">
          <mxGeometry relative="1" as="geometry">
            <mxPoint x="651" y="150" as="sourcePoint" />
            <mxPoint x="761" y="230" as="targetPoint" />
          </mxGeometry>
        </mxCell>
        <mxCell id="7_ypvOIFX0uUqmCxVlpF-126" value="No" style="text;strokeColor=none;align=center;fillColor=none;html=1;verticalAlign=middle;whiteSpace=wrap;rounded=0;fontSize=20;fontFamily=Architects Daughter;" vertex="1" parent="WIyWlLk6GJQsqaUBKTNV-1">
          <mxGeometry x="731" y="130" width="60" height="40" as="geometry" />
        </mxCell>
        <mxCell id="7_ypvOIFX0uUqmCxVlpF-129" value="" style="edgeStyle=orthogonalEdgeStyle;rounded=0;sketch=1;hachureGap=4;jiggle=2;curveFitting=1;orthogonalLoop=1;jettySize=auto;html=1;fontFamily=Architects Daughter;fontSource=https%3A%2F%2Ffonts.googleapis.com%2Fcss%3Ffamily%3DArchitects%2BDaughter;fontSize=16;" edge="1" parent="WIyWlLk6GJQsqaUBKTNV-1" source="7_ypvOIFX0uUqmCxVlpF-9" target="7_ypvOIFX0uUqmCxVlpF-128">
          <mxGeometry relative="1" as="geometry">
            <mxPoint x="319" y="360" as="sourcePoint" />
            <mxPoint x="180" y="360" as="targetPoint" />
            <Array as="points">
              <mxPoint x="260" y="360" />
            </Array>
          </mxGeometry>
        </mxCell>
        <mxCell id="7_ypvOIFX0uUqmCxVlpF-128" value="Si" style="text;strokeColor=none;align=center;fillColor=none;html=1;verticalAlign=middle;whiteSpace=wrap;rounded=0;fontSize=20;fontFamily=Architects Daughter;" vertex="1" parent="WIyWlLk6GJQsqaUBKTNV-1">
          <mxGeometry x="220" y="345" width="60" height="40" as="geometry" />
        </mxCell>
        <mxCell id="7_ypvOIFX0uUqmCxVlpF-131" value="" style="edgeStyle=orthogonalEdgeStyle;rounded=0;sketch=1;hachureGap=4;jiggle=2;curveFitting=1;orthogonalLoop=1;jettySize=auto;html=1;fontFamily=Architects Daughter;fontSource=https%3A%2F%2Ffonts.googleapis.com%2Fcss%3Ffamily%3DArchitects%2BDaughter;fontSize=16;" edge="1" parent="WIyWlLk6GJQsqaUBKTNV-1" source="7_ypvOIFX0uUqmCxVlpF-17" target="7_ypvOIFX0uUqmCxVlpF-130">
          <mxGeometry relative="1" as="geometry">
            <mxPoint x="340" y="590" as="sourcePoint" />
            <mxPoint x="260" y="640" as="targetPoint" />
            <Array as="points" />
          </mxGeometry>
        </mxCell>
        <mxCell id="7_ypvOIFX0uUqmCxVlpF-130" value="Si" style="text;strokeColor=none;align=center;fillColor=none;html=1;verticalAlign=middle;whiteSpace=wrap;rounded=0;fontSize=20;fontFamily=Architects Daughter;" vertex="1" parent="WIyWlLk6GJQsqaUBKTNV-1">
          <mxGeometry x="230" y="570" width="60" height="40" as="geometry" />
        </mxCell>
        <mxCell id="7_ypvOIFX0uUqmCxVlpF-133" value="" style="edgeStyle=orthogonalEdgeStyle;rounded=0;sketch=1;hachureGap=4;jiggle=2;curveFitting=1;orthogonalLoop=1;jettySize=auto;html=1;fontFamily=Architects Daughter;fontSource=https%3A%2F%2Ffonts.googleapis.com%2Fcss%3Ffamily%3DArchitects%2BDaughter;fontSize=16;" edge="1" parent="WIyWlLk6GJQsqaUBKTNV-1" source="7_ypvOIFX0uUqmCxVlpF-31" target="7_ypvOIFX0uUqmCxVlpF-132">
          <mxGeometry relative="1" as="geometry">
            <mxPoint x="339" y="960" as="sourcePoint" />
            <mxPoint x="250" y="1030" as="targetPoint" />
          </mxGeometry>
        </mxCell>
        <mxCell id="7_ypvOIFX0uUqmCxVlpF-132" value="Si" style="text;strokeColor=none;align=center;fillColor=none;html=1;verticalAlign=middle;whiteSpace=wrap;rounded=0;fontSize=20;fontFamily=Architects Daughter;" vertex="1" parent="WIyWlLk6GJQsqaUBKTNV-1">
          <mxGeometry x="220" y="940" width="60" height="40" as="geometry" />
        </mxCell>
      </root>
    </mxGraphModel>
  </diagram>
</mxfile>
